# xmcd
#
# Track frame offsets:
# 150
# 16255
# 43785
# 64440
# 81812
# 109505
# 135847
# 155977
# 177187
# 189682
#
# Disc length: 2853 seconds
#
# Revision: 0
# Processed by: cddbd v1.5.1PL0 Copyright (c) Steve Scherf et al.
# Submitted via: Audion 3.0.2 (http://www.panic.com/audion/)
#
DISCID=820b230a
DTITLE=Barra Head - We Are Your Numbers
DYEAR=2004
DGENRE=Indie
TTITLE0=Overseas
TTITLE1=The Discipline of Making Sense
TTITLE2=Spy
TTITLE3=All Is Not Lost pt. 2
TTITLE4=We Are Your Numbers
TTITLE5=Unthinkable
TTITLE6=Talking to a Liar
TTITLE7=Kill the Lights
TTITLE8=The Usual Standstill
TTITLE9=Neighbour
EXTD=
EXTT0=
EXTT1=
EXTT2=
EXTT3=
EXTT4=
EXTT5=
EXTT6=
EXTT7=
EXTT8=
EXTT9=
PLAYORDER=
